<svg id="Layer_1" data-name="Layer 1" xmlns="http://www.w3.org/2000/svg" viewBox="0 0 409.77 120"><defs><style>.cls-1{fill:#fff;}</style></defs><title>appstore</title><path d="M272.38,68a11.9,11.9,0,0,1-11.8,12H-125.57a11.92,11.92,0,0,1-11.81-12V-28a11.93,11.93,0,0,1,11.81-12H260.58a11.93,11.93,0,0,1,11.8,12V68Z" transform="translate(137.38 40)"/><path class="cls-1" d="M-45.67,19.35c-.09-9.76,8-14.51,8.36-14.73A18,18,0,0,0-51.46-3C-57.42-3.66-63.2.53-66.23.53S-74-3-79-2.88A18.83,18.83,0,0,0-94.9,6.8c-6.86,11.88-1.75,29.34,4.83,38.94,3.29,4.7,7.13,9.95,12.16,9.77s6.75-3.14,12.69-3.14,7.61,3.14,12.74,3,8.6-4.72,11.78-9.47a38.76,38.76,0,0,0,5.38-11A17,17,0,0,1-45.67,19.35Zm-9.69-28.7a17.3,17.3,0,0,0,4-12.39c-3.83.17-8.62,2.65-11.38,5.89C-65.22-13-67.4-8.32-66.84-3.92c4.3.32,8.72-2.17,11.48-5.43Z" transform="translate(137.38 40)"/><path class="cls-1" d="M25.55,54.84H18.67L14.9,43H1.81L-1.78,54.84H-8.47l13-40.3h8l13,40.3ZM13.77,38,10.36,27.51c-.36-1.08-1-3.6-2-7.59H8.21q-.6,2.56-1.92,7.59L3,38ZM58.91,40q0,7.41-4,11.72A11.73,11.73,0,0,1,46,55.49q-5.75,0-8.25-4.12h-.12V66.68H31.16V35.34c0-3.1-.08-6.3-.24-9.57H36.6L37,30.38h.13q3.22-5.2,9.8-5.21a10.78,10.78,0,0,1,8.58,4.07Q58.91,33.31,58.91,40Zm-6.58.24a12,12,0,0,0-1.91-7,6.85,6.85,0,0,0-10-1.29,7.32,7.32,0,0,0-2.55,4.16,8.5,8.5,0,0,0-.3,2v4.85a7.75,7.75,0,0,0,2,5.35,6.42,6.42,0,0,0,5,2.18,6.6,6.6,0,0,0,5.67-2.81A12.32,12.32,0,0,0,52.33,40.19Zm40-.24q0,7.41-4,11.72a11.7,11.7,0,0,1-8.9,3.82c-3.84,0-6.58-1.37-8.26-4.12H71V66.68H64.59V35.34c0-3.1-.08-6.3-.25-9.57H70l.36,4.61h.12q3.22-5.2,9.8-5.21a10.82,10.82,0,0,1,8.59,4.07Q92.32,33.31,92.33,40Zm-6.58.24a12,12,0,0,0-1.92-7,6.59,6.59,0,0,0-5.61-2.87,6.71,6.71,0,0,0-4.34,1.58,7.36,7.36,0,0,0-2.54,4.16,8.5,8.5,0,0,0-.3,2v4.85A7.78,7.78,0,0,0,73,48.23,6.47,6.47,0,0,0,78,50.41a6.61,6.61,0,0,0,5.68-2.81,12.32,12.32,0,0,0,2-7.41Zm43.95,3.34a10.74,10.74,0,0,1-3.59,8.37q-3.93,3.54-11,3.53c-4.34,0-7.81-.83-10.45-2.51l1.5-5.38a17.62,17.62,0,0,0,9.33,2.58,8.79,8.79,0,0,0,5.68-1.65,5.34,5.34,0,0,0,2-4.4,5.65,5.65,0,0,0-1.67-4.13A15.54,15.54,0,0,0,116,36.82q-10.59-3.94-10.58-11.55a10.23,10.23,0,0,1,3.71-8.15Q112.82,14,119,14a19.5,19.5,0,0,1,9.15,1.92l-1.62,5.26a15.92,15.92,0,0,0-7.71-1.84A7.8,7.8,0,0,0,113.49,21a4.8,4.8,0,0,0-1.61,3.65,4.91,4.91,0,0,0,1.85,3.94,20.72,20.72,0,0,0,5.86,3.11,19.74,19.74,0,0,1,7.65,4.9,10.22,10.22,0,0,1,2.46,7ZM151,30.62h-7.12V44.73q0,5.39,3.77,5.38a11.53,11.53,0,0,0,2.87-.3l.17,4.9a14.47,14.47,0,0,1-5,.72,7.76,7.76,0,0,1-6-2.33q-2.14-2.34-2.15-7.84V30.62h-4.24V25.77h4.24V20.45l6.34-1.91v7.23H151v4.85Zm32.1,9.45a16,16,0,0,1-3.82,11,13.68,13.68,0,0,1-10.65,4.42,13,13,0,0,1-10.19-4.24,15.46,15.46,0,0,1-3.79-10.7,15.81,15.81,0,0,1,3.91-11.06,13.57,13.57,0,0,1,10.55-4.31,13.28,13.28,0,0,1,10.28,4.25,15.27,15.27,0,0,1,3.72,10.64Zm-6.69.21a13.09,13.09,0,0,0-1.73-6.9,6.39,6.39,0,0,0-5.8-3.48A6.46,6.46,0,0,0,163,33.38a13.3,13.3,0,0,0-1.73,7,13.09,13.09,0,0,0,1.73,6.9,6.61,6.61,0,0,0,11.66-.06,13.15,13.15,0,0,0,1.78-7Zm27.68-8.82a10.21,10.21,0,0,0-2-.19,6.12,6.12,0,0,0-5.27,2.58,9.71,9.71,0,0,0-1.61,5.74V54.83h-6.45l.06-19.9c0-3.35-.09-6.4-.24-9.15h5.62l.23,5.56h.19a9.91,9.91,0,0,1,3.22-4.61,7.85,7.85,0,0,1,4.66-1.55,9.91,9.91,0,0,1,1.62.12v6.16ZM233,38.93a15.26,15.26,0,0,1-.23,2.93H213.4a8.42,8.42,0,0,0,2.81,6.58,9.6,9.6,0,0,0,6.33,2,21.41,21.41,0,0,0,7.84-1.38l1,4.49a24.37,24.37,0,0,1-9.74,1.79c-4.51,0-8-1.33-10.62-4s-3.85-6.21-3.85-10.67a16.68,16.68,0,0,1,3.59-10.94,12.38,12.38,0,0,1,10.16-4.67q6.28,0,9.51,4.67A15.68,15.68,0,0,1,233,38.92Zm-6.15-1.67a8.75,8.75,0,0,0-1.26-5,5.64,5.64,0,0,0-5.14-2.69,6.12,6.12,0,0,0-5.14,2.63,9.51,9.51,0,0,0-1.91,5h13.45Z" transform="translate(137.38 40)"/><path class="cls-1" d="M11.63-10.25q0,5.34-3.2,8.05Q5.46.29,0,.29A40.73,40.73,0,0,1-4.64.06V-19.41a33.26,33.26,0,0,1,5.46-.42c3.47,0,6.09.76,7.84,2.26A9.15,9.15,0,0,1,11.63-10.25Zm-3.34.08a7.23,7.23,0,0,0-1.84-5.31,7.21,7.21,0,0,0-5.36-1.85,13.49,13.49,0,0,0-2.56.2v14.8a16.64,16.64,0,0,0,2.14.09,7.53,7.53,0,0,0,5.63-2,8.12,8.12,0,0,0,2-5.91Zm21.09,3a7.78,7.78,0,0,1-1.89,5.4A6.69,6.69,0,0,1,22.26.44a6.37,6.37,0,0,1-5-2.09A7.59,7.59,0,0,1,15.4-6.9a7.73,7.73,0,0,1,1.92-5.44,6.7,6.7,0,0,1,5.18-2.11,6.53,6.53,0,0,1,5.05,2.09,7.54,7.54,0,0,1,1.82,5.23Zm-3.3.1a6.4,6.4,0,0,0-.85-3.38,3.12,3.12,0,0,0-2.84-1.71,3.2,3.2,0,0,0-2.92,1.71A6.62,6.62,0,0,0,18.63-7a6.51,6.51,0,0,0,.84,3.39,3.21,3.21,0,0,0,2.88,1.71A3.17,3.17,0,0,0,25.2-3.62,6.4,6.4,0,0,0,26.08-7Zm27.08-7.12L48.7.11H45.79L43.94-6.08a47.21,47.21,0,0,1-1.15-4.62h-.06a33.15,33.15,0,0,1-1.14,4.62l-2,6.19H36.68l-4.2-14.27h3.26l1.62,6.79c.39,1.6.71,3.13,1,4.58h.06c.24-1.2.63-2.72,1.18-4.55l2-6.82h2.58l1.94,6.67c.47,1.63.85,3.19,1.15,4.7h.09a43.67,43.67,0,0,1,1-4.7l1.74-6.67h3.11ZM69.61.11H66.44V-8.06q0-3.78-2.88-3.78a2.84,2.84,0,0,0-2.29,1,3.7,3.7,0,0,0-.88,2.45V.11H57.21V-10.08c0-1.25,0-2.61-.11-4.09h2.79L60-11.93h.09a4.52,4.52,0,0,1,1.64-1.73,5.38,5.38,0,0,1,2.88-.8A4.56,4.56,0,0,1,68-13.17a6.28,6.28,0,0,1,1.64,4.73V.11Zm8.75,0H75.19V-20.71h3.17ZM97.05-7.14a7.82,7.82,0,0,1-1.88,5.4A6.7,6.7,0,0,1,89.94.44a6.38,6.38,0,0,1-5-2.09A7.59,7.59,0,0,1,83.07-6.9,7.78,7.78,0,0,1,85-12.34a6.7,6.7,0,0,1,5.18-2.11,6.53,6.53,0,0,1,5.06,2.09,7.54,7.54,0,0,1,1.82,5.23Zm-3.3.1a6.49,6.49,0,0,0-.84-3.38,3.15,3.15,0,0,0-2.85-1.71,3.17,3.17,0,0,0-2.91,1.71A6.53,6.53,0,0,0,86.3-7a6.42,6.42,0,0,0,.85,3.39A3.2,3.2,0,0,0,90-1.88a3.18,3.18,0,0,0,2.85-1.74A6.49,6.49,0,0,0,93.75-7ZM112.41.11h-2.85l-.24-1.64h-.09a4.88,4.88,0,0,1-4.17,2,4.29,4.29,0,0,1-3.25-1.29,4.07,4.07,0,0,1-1.13-2.91,4.45,4.45,0,0,1,2.19-4A11.4,11.4,0,0,1,109-9.11v-.26q0-2.82-3-2.82a6.61,6.61,0,0,0-3.72,1.06l-.64-2.09a9.19,9.19,0,0,1,4.9-1.23q5.59,0,5.6,5.9v5.26a23.26,23.26,0,0,0,.2,3.4Zm-3.3-4.9V-7q-5.25-.09-5.25,2.87a2.15,2.15,0,0,0,.61,1.68,2.23,2.23,0,0,0,1.55.55A3.18,3.18,0,0,0,108-2.55a2.65,2.65,0,0,0,1.1-1.69,2.87,2.87,0,0,0,0-.55ZM130.44.11h-2.82l-.15-2.29h-.08A4.75,4.75,0,0,1,122.8.44a5.39,5.39,0,0,1-4.29-2,7.91,7.91,0,0,1-1.7-5.25,8.35,8.35,0,0,1,1.85-5.62,5.69,5.69,0,0,1,4.41-2,4.3,4.3,0,0,1,4,1.93h.06v-8.19h3.17v17c0,1.39,0,2.67.11,3.84Zm-3.29-6V-8.29a4.39,4.39,0,0,0-.09-1,3.59,3.59,0,0,0-1.15-1.93,3.1,3.1,0,0,0-2.12-.78A3.26,3.26,0,0,0,121-10.58,6,6,0,0,0,120-7a5.63,5.63,0,0,0,1,3.44,3.26,3.26,0,0,0,2.77,1.41,3.07,3.07,0,0,0,2.51-1.17,3.94,3.94,0,0,0,.91-2.62Zm30.43-1.23a7.82,7.82,0,0,1-1.88,5.4A6.7,6.7,0,0,1,150.47.44a6.41,6.41,0,0,1-5-2.09A7.59,7.59,0,0,1,143.6-6.9a7.78,7.78,0,0,1,1.92-5.44,6.71,6.71,0,0,1,5.19-2.11,6.53,6.53,0,0,1,5,2.09,7.54,7.54,0,0,1,1.82,5.23Zm-3.29.1a6.4,6.4,0,0,0-.85-3.38,3.13,3.13,0,0,0-2.85-1.71,3.19,3.19,0,0,0-2.91,1.71A6.53,6.53,0,0,0,146.83-7a6.42,6.42,0,0,0,.85,3.39,3.2,3.2,0,0,0,2.88,1.71,3.17,3.17,0,0,0,2.85-1.74A6.49,6.49,0,0,0,154.29-7ZM174.64.11h-3.17V-8.06c0-2.52-.95-3.78-2.87-3.78a2.85,2.85,0,0,0-2.3,1,3.7,3.7,0,0,0-.88,2.45V.11h-3.18V-10.08c0-1.25,0-2.61-.11-4.09h2.79l.15,2.24h.08a4.7,4.7,0,0,1,1.65-1.73,5.37,5.37,0,0,1,2.87-.8A4.59,4.59,0,0,1,173-13.17a6.32,6.32,0,0,1,1.64,4.73V.11ZM196-11.78h-3.49v6.93c0,1.76.62,2.65,1.84,2.65a5.1,5.1,0,0,0,1.42-.16l.08,2.41a7,7,0,0,1-2.46.36,3.78,3.78,0,0,1-2.94-1.15,5.56,5.56,0,0,1-1.06-3.84v-7.21h-2.08v-2.37h2.09v-2.62l3.1-.93v3.55H196ZM212.8.11h-3.18V-8c0-2.56-1-3.84-2.87-3.84a3,3,0,0,0-3,2.23,4.09,4.09,0,0,0-.15,1.14V.11H200.4V-20.71h3.17v8.6h.06a4.81,4.81,0,0,1,4.29-2.34,4.45,4.45,0,0,1,3.27,1.29,6.5,6.5,0,0,1,1.61,4.78V.11ZM230.13-7.7A7.31,7.31,0,0,1,230-6.26h-9.52A4.2,4.2,0,0,0,221.87-3,4.73,4.73,0,0,0,225-2a10.55,10.55,0,0,0,3.85-.67l.49,2.2a11.87,11.87,0,0,1-4.79.88,6.92,6.92,0,0,1-5.21-1.95,7.17,7.17,0,0,1-1.89-5.24,8.16,8.16,0,0,1,1.76-5.38,6.09,6.09,0,0,1,5-2.29,5.31,5.31,0,0,1,4.66,2.29,7.56,7.56,0,0,1,1.28,4.49Zm-3-.82a4.25,4.25,0,0,0-.61-2.44A2.8,2.8,0,0,0,224-12.28,3,3,0,0,0,221.44-11a4.77,4.77,0,0,0-.94,2.47Z" transform="translate(137.38 40)"/></svg>