<svg id="Layer_1" data-name="Layer 1" xmlns="http://www.w3.org/2000/svg" viewBox="0 0 405 120"><defs><style>.cls-1{fill:none;}.cls-2{fill:#1a1a1a;}.cls-2,.cls-3{fill-rule:evenodd;}.cls-3,.cls-4{fill:#fff;}</style></defs><title>browser</title><path class="cls-1" d="M-135-40H270V80H-135Z" transform="translate(135 40)"/><path class="cls-2" d="M270,68a12.23,12.23,0,0,1-3.42,8.51,11.49,11.49,0,0,1-8.2,3.51h-381.7c-6.34.07-11.61-5.36-11.68-12V-27.94c.06-6.63,5.26-12.06,11.56-12.06H258.27c6.34-.07,11.6,5.37,11.66,12V68l.07,0Z" transform="translate(135 40)"/><path class="cls-3" d="M-72.38-15.8C-53-15.8-37.5-.43-37.5,18.37S-53.06,52.54-72.38,52.56s-34.93-15.24-34.9-34.19S-91.59-15.77-72.38-15.8ZM-74.09,20H-87.36v.42a60.71,60.71,0,0,0,1.57,12c.1.44.26.59.71.58h11Zm0-16.27H-85.27c-.35,0-.45.14-.52.45a58.71,58.71,0,0,0-1.47,9.7c-.07.95-.09,1.91-.14,2.86h13.31ZM-40.86,20H-54.11a61,61,0,0,1-1.74,13h10.93a.75.75,0,0,0,.55-.36A29.36,29.36,0,0,0-41.78,26,31,31,0,0,0-40.86,20Zm-49.78,0h-13.19v.54a30.61,30.61,0,0,0,3.37,11.94.85.85,0,0,0,.87.53h10.73A60.75,60.75,0,0,1-90.64,20Zm49.77-3.28v-.36a30.63,30.63,0,0,0-3.48-12.3.68.68,0,0,0-.74-.38H-55.92l.07.32a57.31,57.31,0,0,1,1.64,12c0,.53.16.7.71.69h11.94ZM-89,3.74H-99.8c-.4,0-.53.21-.67.49A30.13,30.13,0,0,0-103.64,14c-.13.92-.2,1.86-.3,2.77l.27.05h12.59c.41,0,.45-.19.47-.52.12-1.81.19-3.61.43-5.4C-89.86,8.47-89.4,6.14-89,3.74ZM-70.67,33h10.94c.37,0,.48-.14.56-.47a58.7,58.7,0,0,0,1.44-9.31c.08-1,.11-2.14.17-3.23H-70.67Zm13.05-16.27a59.79,59.79,0,0,0-1.54-12.5c-.1-.43-.3-.51-.7-.51H-70.71v13ZM-74.09-12.39h-.34a10.52,10.52,0,0,0-5.31,3.51,25.85,25.85,0,0,0-4.6,8.39,8.6,8.6,0,0,0-.29.9h10.54ZM-84.66,36.29a3.62,3.62,0,0,0,.13.47c.66,1.54,1.25,3.08,2,4.61a16.67,16.67,0,0,0,5,6.22,8.32,8.32,0,0,0,3.38,1.54V36.29Zm24.45,0H-70.66V49a.65.65,0,0,0,.38-.07,9.41,9.41,0,0,0,3.66-2.05A19.64,19.64,0,0,0-61.78,40c.57-1.17,1-2.46,1.57-3.74ZM-60.27.4a28.9,28.9,0,0,0-4-8,12.74,12.74,0,0,0-4.61-4.11c-.56-.26-1.14-.45-1.78-.68V.43ZM-63.11,48A31.89,31.89,0,0,0-46.58,36.27h-9.61a.7.7,0,0,0-.82.56,33.27,33.27,0,0,1-3.84,8.05C-61.54,45.91-62.32,46.88-63.11,48ZM-98.18,36.27A31.39,31.39,0,0,0-81.69,47.88a33,33,0,0,1-6.15-11.27c-.12-.36-.36-.33-.63-.33h-9.71Zm16.49-47.39A31.33,31.33,0,0,0-98.1.4a4.38,4.38,0,0,1,.48.07h9.24A.56.56,0,0,0-87.79,0,33.37,33.37,0,0,1-81.69-11.12Zm35,11.59C-48.95-3.8-59.61-11.27-63.14-11.07A31.86,31.86,0,0,1-57-.09a.73.73,0,0,0,.83.56Zm29.58.63V-10.18h2.38v11c0,4,1.91,5.86,4.94,5.86S-4.89,4.82-4.89.82v-11h2.42V1.09c0,5.13-3.08,7.68-7.36,7.68S-17.15,6.25-17.15,1.1ZM2.28,4.82a3,3,0,0,0,3.2,2.06c1.62,0,2.79-.64,2.79-2.06,0-.94-.62-1.52-2.06-1.88l-2.68-.7C1.61,1.75.26.77.26-1.33c0-2.41,2.11-4,4.86-4,3,0,4.76,1.47,5.25,3.85H8.08a2.79,2.79,0,0,0-3-1.92c-1.34,0-2.59.64-2.59,2,0,.91.61,1.34,1.89,1.71L7,.9c2.32.6,3.45,1.88,3.45,3.78,0,2.56-2.13,4.1-5,4.1s-5.13-1.5-5.55-4Z" transform="translate(135 40)"/><path class="cls-4" d="M23.94,4.48a5.15,5.15,0,0,1-5.46,4.33c-3.69,0-6.22-2.84-6.22-7s2.47-7.07,6.15-7.07,5.7,2.71,5.7,6.64v.82H14.54c0,2.9,1.65,4.66,3.94,4.66a3.08,3.08,0,0,0,3.29-2.37ZM14.6.46h7.19c0-2.05-1.1-3.79-3.36-3.79C16.41-3.32,14.94-1.92,14.6.46ZM34.17-7.62A1.5,1.5,0,0,1,32.7-9.09a1.49,1.49,0,0,1,1.48-1.48,1.49,1.49,0,0,1,1.48,1.48A1.51,1.51,0,0,1,34.17-7.62ZM35.33,8.53H33V-5h2.29Z" transform="translate(135 40)"/><path class="cls-3" d="M38.69-5H41v1.71a5.09,5.09,0,0,1,4-2c3.08,0,4.76,2,4.76,4.95V8.55H47.42V0c0-1.89-.94-3.2-3-3.2A3.69,3.69,0,0,0,41-.63V8.6H38.71ZM61.24,13.72l2-5.12L58-5h2.47l4,10.68L68.4-5h2.38L63.49,13.72Z" transform="translate(135 40)"/><path class="cls-4" d="M78,8.81c-3.72,0-6.22-2.9-6.22-7s2.5-7,6.22-7,6.23,2.9,6.23,7S81.64,8.81,78,8.81ZM78-3.27c-2.44,0-3.91,2.05-3.91,5s1.47,5,3.91,5,3.91-2,3.91-5-1.47-5-3.91-5Z" transform="translate(135 40)"/><path class="cls-3" d="M97.67,8.53H95.35V6.83a4.89,4.89,0,0,1-3.94,2c-3.08,0-4.73-2-4.73-4.94V-5H89V3.51c0,1.89.91,3.2,3,3.2a3.6,3.6,0,0,0,3.38-2.53V-5h2.32ZM108.25-2.71a2.88,2.88,0,0,0-1.52-.37,3.29,3.29,0,0,0-3.14,2.53V8.53H101.3V-5h2.29v1.77a3.8,3.8,0,0,1,3.35-2.06,3.41,3.41,0,0,1,1.31.22ZM3.28,18.74l6,23.42,5.76-23.42h5.24L12.08,50.52h-5l-6-22.72L-5.1,50.55H-10l-8.2-31.78h5.29L-7.18,42.2l6.06-23.43Z" transform="translate(135 40)"/><path class="cls-4" d="M41.24,43.41c-.78,4.56-4.1,7.66-9.69,7.66-6.43,0-10.89-4.87-10.89-12C20.66,32.21,25.17,27,31.45,27c6.48,0,10,4.61,10,11.35v1.87H25.73c.16,4,2.5,6.48,5.81,6.48,2.49,0,4.36-1.09,4.93-3.32ZM25.86,36.46H36.28c-.05-2.8-1.66-5.12-4.82-5.12-2.82,0-4.95,1.8-5.57,5.12Zm24.82,14.1H45.49V16.87h5.19V29.51A7.86,7.86,0,0,1,56.54,27c6.74,0,10.68,5.44,10.68,12s-3.94,12-10.68,12a7.82,7.82,0,0,1-5.86-2.49Zm0-7.18a5.61,5.61,0,0,0,5,3.08c4,0,6.38-3.16,6.38-7.41s-2.39-7.42-6.38-7.42a5.62,5.62,0,0,0-5,3.08Zm54.55-1.94c0,6-4.1,9.12-10.78,9.12H82.27V18.78H93.42c6.63,0,10.79,2.95,10.79,8.65,0,3.43-1.82,5.91-4.11,6.74A7.69,7.69,0,0,1,105.23,41.44ZM93.36,32.11C97,32.11,99,30.71,99,27.7s-2-4.31-5.65-4.31H87.5v8.72ZM87.5,45.9h6.84c3.63,0,5.6-1.82,5.6-4.67s-2-4.66-5.6-4.66H87.5Z" transform="translate(135 40)"/><path class="cls-3" d="M122.61,32.78a5.82,5.82,0,0,0-3.08-.78,4.51,4.51,0,0,0-4.61,3.68V50.56h-5.19v-23h5.19v2.39a5.79,5.79,0,0,1,5.13-2.9,6.67,6.67,0,0,1,2.54.41Z" transform="translate(135 40)"/><path class="cls-4" d="M135.18,51.07c-6.49,0-11-5-11-12s4.51-12,11-12,11,5,11,12S141.7,51.07,135.18,51.07Zm0-19.59c-3.74,0-5.76,3.21-5.76,7.57s2.05,7.57,5.76,7.57,5.75-3.21,5.75-7.57S139,31.48,135.18,31.48Z" transform="translate(135 40)"/><path class="cls-3" d="M170.42,43.87l4.47-16.33h5l-6.69,23H168l-4.1-16-4.1,16h-5.13l-6.69-23h5.19l4.46,16.33,4-16.33h4.72l4,16.33Zm16.34.05c.58,1.92,2.28,2.9,4.57,2.9s3.94-.93,3.94-2.75c0-1.24-.78-1.92-2.7-2.39l-4.77-1.14c-3.26-.77-5.7-2.54-5.7-6.32,0-4.1,3.68-7.18,8.7-7.18,5.4,0,8.46,2.6,9.24,6.79h-5.13c-.47-1.51-1.82-2.54-4.2-2.54-1.81,0-3.68.83-3.68,2.64,0,1,.73,1.71,2.39,2.12l4.87,1.14c3.94.94,5.91,3.16,5.91,6.53,0,4.57-3.78,7.37-9,7.37-5.4,0-9.13-2.7-9.8-7.18Z" transform="translate(135 40)"/><path class="cls-4" d="M223.58,43.41c-.78,4.56-4.1,7.66-9.69,7.66-6.44,0-10.9-4.87-10.9-12C203,32.21,207.51,27,213.78,27c6.49,0,10,4.61,10,11.35v1.87H208.08c.15,4,2.49,6.48,5.81,6.48,2.49,0,4.36-1.09,4.92-3.32Zm-15.39-6.95h10.42c-.05-2.8-1.66-5.12-4.82-5.12-2.81,0-4.93,1.8-5.56,5.12Z" transform="translate(135 40)"/><path class="cls-3" d="M240.7,32.78a5.82,5.82,0,0,0-3.08-.78A4.51,4.51,0,0,0,233,35.68V50.56h-5.19v-23H233v2.39a5.79,5.79,0,0,1,5.13-2.9,6.67,6.67,0,0,1,2.54.41Z" transform="translate(135 40)"/></svg>