<svg id="android-svg2" xmlns="http://www.w3.org/2000/svg" xmlns:xlink="http://www.w3.org/1999/xlink" viewBox="0 0 409.77 120"><defs><style>.cls-1,.cls-2{fill:#fff;}.cls-1{stroke:#fff;stroke-miterlimit:10;stroke-width:0.48px;}.cls-3{fill:url(#linear-gradient);}.cls-4{fill:url(#linear-gradient-2);}.cls-5{fill:url(#linear-gradient-3);}.cls-6{fill:url(#linear-gradient-4);}</style><linearGradient id="linear-gradient" x1="-61.45" y1="-167.7" x2="-112.27" y2="-116.88" gradientTransform="matrix(1, 0, 0, -0.99, -9.23, -112.14)" gradientUnits="userSpaceOnUse"><stop offset="0" stop-color="#00a0ff"/><stop offset="0.01" stop-color="#00a1ff"/><stop offset="0.26" stop-color="#00beff"/><stop offset="0.51" stop-color="#00d2ff"/><stop offset="0.76" stop-color="#00dfff"/><stop offset="1" stop-color="#00e3ff"/></linearGradient><linearGradient id="linear-gradient-2" x1="-25.01" y1="-133.51" x2="-98.28" y2="-133.51" gradientTransform="matrix(1, 0, 0, -0.99, -9.23, -112.14)" gradientUnits="userSpaceOnUse"><stop offset="0" stop-color="#ffe000"/><stop offset="0.41" stop-color="#ffbd00"/><stop offset="0.78" stop-color="orange"/><stop offset="1" stop-color="#ff9c00"/></linearGradient><linearGradient id="linear-gradient-3" x1="-77.55" y1="-151.82" x2="-146.46" y2="-82.91" gradientTransform="matrix(1, 0, 0, -0.99, -9.23, -112.14)" gradientUnits="userSpaceOnUse"><stop offset="0" stop-color="#ff3a44"/><stop offset="1" stop-color="#c31162"/></linearGradient><linearGradient id="linear-gradient-4" x1="-130.63" y1="-168.27" x2="-99.85" y2="-137.5" gradientTransform="matrix(1, 0, 0, -0.99, -9.23, -112.14)" gradientUnits="userSpaceOnUse"><stop offset="0" stop-color="#32a071"/><stop offset="0.07" stop-color="#2da771"/><stop offset="0.48" stop-color="#15cf74"/><stop offset="0.8" stop-color="#06e775"/><stop offset="1" stop-color="#00f076"/></linearGradient></defs><title>googleplay</title><g id="android-g10"><g id="android-g12"><path id="android-path14" d="M257.6,80.13H-121.82a15.13,15.13,0,0,1-15.17-15v-90a15.13,15.13,0,0,1,15.17-15H257.6a15.13,15.13,0,0,1,15.17,15v90a15.13,15.13,0,0,1-15.17,15Z" transform="translate(136.99 39.87)"/><g id="android-g18"><path id="android-path20" class="cls-1" d="M6.93-9.14a8.13,8.13,0,0,1-2.25,6A8.94,8.94,0,0,1-2-.47a9.27,9.27,0,0,1-6.7-2.69,9.07,9.07,0,0,1-2.76-6.72,9,9,0,0,1,2.76-6.69A9.21,9.21,0,0,1-2-19.28a9.54,9.54,0,0,1,3.74.76,7.48,7.48,0,0,1,2.85,2L3-14.93A6.17,6.17,0,0,0-2-17a7,7,0,0,0-5,2A6.89,6.89,0,0,0-9.1-9.88,6.92,6.92,0,0,0-7-4.67a7.07,7.07,0,0,0,5,2,6.94,6.94,0,0,0,5.08-2A5.6,5.6,0,0,0,4.58-8.34H-2v-2.17H6.79a6.54,6.54,0,0,1,.13,1.37Z" transform="translate(136.99 39.87)"/></g><g id="android-g22"><path id="android-path24" class="cls-1" d="M20.92-16.66H12.65V-11h7.47v2.18H12.65v5.7h8.28v2.2H10.31v-18H20.93v2.21Z" transform="translate(136.99 39.87)"/></g><g id="android-g26"><path id="android-path28" class="cls-1" d="M30.8-.88H28.45V-16.66H23.37v-2.2H35.88v2.21H30.8Z" transform="translate(136.99 39.87)"/></g><g id="android-g30"><path id="android-path32" class="cls-1" d="M44.94-.88v-18h2.33v18H44.94Z" transform="translate(136.99 39.87)"/></g><g id="android-g34"><path id="android-path36" class="cls-1" d="M57.65-.88H55.33V-16.66h-5.1v-2.2H62.75v2.21h-5.1V-.88Z" transform="translate(136.99 39.87)"/></g><g id="android-g38"><path id="android-path40" class="cls-1" d="M86.43-3.2A9,9,0,0,1,79.76-.47a9,9,0,0,1-6.69-2.72,9.13,9.13,0,0,1-2.68-6.68,9.13,9.13,0,0,1,2.68-6.67,9,9,0,0,1,6.69-2.73,8.94,8.94,0,0,1,6.65,2.73A9.12,9.12,0,0,1,89.1-9.87a9.12,9.12,0,0,1-2.67,6.68ZM74.81-4.7a6.73,6.73,0,0,0,5,2,6.71,6.71,0,0,0,4.94-2,7.06,7.06,0,0,0,2-5.17,7.06,7.06,0,0,0-2-5.18,6.74,6.74,0,0,0-4.94-2,6.71,6.71,0,0,0-5,2,7,7,0,0,0-2,5.17,7,7,0,0,0,2,5.17Z" transform="translate(136.99 39.87)"/></g><g id="android-g42"><path id="android-path44" class="cls-1" d="M92.4-.88v-18h2.85l8.85,14h.1l-.1-3.45V-18.86h2.34v18H104L94.73-15.56h-.1l.1,3.48V-.88H92.4Z" transform="translate(136.99 39.87)"/></g><path id="android-path46" class="cls-2" d="M69.82,25.39a12.76,12.76,0,1,0,13,12.75,12.65,12.65,0,0,0-13-12.75Zm0,20.49a7.42,7.42,0,0,1-7.28-7.73,7.3,7.3,0,1,1,14.58,0,7.43,7.43,0,0,1-7.3,7.73ZM41.56,25.39a12.76,12.76,0,1,0,0,25.51,12.76,12.76,0,1,0,0-25.52Zm0,20.49a7.42,7.42,0,0,1-7.29-7.73,7.29,7.29,0,1,1,14.56,0,7.4,7.4,0,0,1-7.27,7.73ZM7.92,29.3v5.42H21a11.23,11.23,0,0,1-3,6.81,13.56,13.56,0,0,1-10.13,4,14.41,14.41,0,0,1,0-28.81,14,14,0,0,1,9.87,3.87l3.87-3.82A19.22,19.22,0,0,0,7.92,11.27c-11,0-20.35,8.89-20.35,19.82s9.3,19.82,20.35,19.82c6,0,10.46-1.94,14-5.57s4.75-8.6,4.75-12.66a17.84,17.84,0,0,0-.3-3.38Zm137.53,4.21c-1.07-2.86-4.36-8.12-11.06-8.12s-12.17,5.17-12.17,12.76A12.55,12.55,0,0,0,135,50.9a12.84,12.84,0,0,0,10.76-5.65l-4.4-2.9A7.41,7.41,0,0,1,135,45.88,6.55,6.55,0,0,1,128.78,42L146,35l-.6-1.45Zm-17.61,4.24a7,7,0,0,1,6.75-7.44,5,5,0,0,1,4.8,2.71l-11.54,4.73Zm-14,12.38h5.67V12.63h-5.67Zm-9.3-21.9h-.19a8.94,8.94,0,0,0-6.78-2.84,12.77,12.77,0,0,0,0,25.52,8.86,8.86,0,0,0,6.78-2.9h.19v1.83c0,4.87-2.63,7.49-6.89,7.49a7.16,7.16,0,0,1-6.51-4.55l-4.93,2a12.31,12.31,0,0,0,11.44,7.54c6.66,0,12.27-3.87,12.27-13.28V26.16h-5.38ZM98,45.88a7.36,7.36,0,0,1-7.18-7.69c0-4.5,3.27-7.78,7.18-7.78s6.9,3.28,6.9,7.78S101.88,45.88,98,45.88Zm74-33.25H158.45v37.5h5.66V35.92H172c6.29,0,12.45-4.5,12.45-11.65S178.3,12.63,172,12.63Zm.15,18.07h-8.06V17.85h8.06a6.54,6.54,0,0,1,6.64,6.43,6.58,6.58,0,0,1-6.64,6.43Zm35-5.39c-4.09,0-8.34,1.79-10.09,5.75l5,2.08c1.07-2.08,3.06-2.76,5.17-2.76,2.93,0,5.91,1.75,6,4.83v.39a12.65,12.65,0,0,0-5.92-1.45c-5.41,0-10.92,2.94-10.92,8.44,0,5,4.43,8.26,9.42,8.26A8,8,0,0,0,213,47.17h.2v2.9h5.46V35.69c0-6.65-5-10.38-11.52-10.38Zm-.68,20.56c-1.85,0-4.43-.91-4.43-3.18,0-2.9,3.22-4,6-4a10.3,10.3,0,0,1,5.18,1.26,6.85,6.85,0,0,1-6.75,5.94Zm32.13-19.73-6.5,16.26h-.19l-6.73-16.26h-6.11l10.11,22.72L223.42,61.5h5.92l15.57-35.37h-6.3Zm-51,24h5.67V12.63h-5.67v37.5Z" transform="translate(136.99 39.87)"/><g id="android-g48"><path id="android-path64" class="cls-3" d="M-105.32-17.26a6,6,0,0,0-1.4,4.22V53.31a5.93,5.93,0,0,0,1.4,4.22l.22.2,37.62-37.16v-.88L-105.1-17.47l-.22.21Z" transform="translate(136.99 39.87)"/></g><g id="android-g66"><path id="android-path78" class="cls-4" d="M-55,33-67.48,20.57v-.88L-54.94,7.3l.28.16,14.84,8.35c4.24,2.37,4.24,6.27,0,8.66L-54.66,32.8Z" transform="translate(136.99 39.87)"/></g><g id="android-g80"><path id="android-path88" class="cls-5" d="M-54.66,32.8-67.48,20.13l-37.84,37.4c1.4,1.46,3.7,1.64,6.31.17l44.35-24.9" transform="translate(136.99 39.87)"/></g><g id="android-g90"><path id="android-path104" class="cls-6" d="M-54.66,7.45-99-17.45c-2.61-1.44-4.91-1.27-6.32.19l37.85,37.39Z" transform="translate(136.99 39.87)"/></g></g></g></svg>