<?xml version="1.0" encoding="utf-8"?>
<!-- Generator: Adobe Illustrator 24.2.1, SVG Export Plug-In . SVG Version: 6.00 Build 0)  -->
<svg version="1.1" id="artwork" xmlns="http://www.w3.org/2000/svg" xmlns:xlink="http://www.w3.org/1999/xlink" x="0px" y="0px"
	 viewBox="0 0 135 40" style="enable-background:new 0 0 135 40;" xml:space="preserve">
<style type="text/css">
	.st0{display:none;}
	.st1{display:inline;}
	.st2{fill:#A6A6A6;}
	.st3{display:none;fill:#C0C1C1;}
	.st4{fill:#FFFFFF;}
	.st5{fill-rule:evenodd;clip-rule:evenodd;fill:#C8102E;}
</style>
<g>
	<g>
		<path d="M130,40H5c-2.8,0-5-2.2-5-5V5c0-2.8,2.2-5,5-5h125c2.8,0,5,2.2,5,5v30C135,37.8,132.8,40,130,40z"/>
	</g>
	<g class="st0">
		<g class="st1">
			<path class="st2" d="M130,0.8c2.3,0,4.2,1.9,4.2,4.2v30c0,2.3-1.9,4.2-4.2,4.2H5c-2.3,0-4.2-1.9-4.2-4.2V5c0-2.3,1.9-4.2,4.2-4.2
				H130 M130,0H5C2.2,0,0,2.3,0,5v30c0,2.8,2.2,5,5,5h125c2.8,0,5-2.2,5-5V5C135,2.3,132.8,0,130,0L130,0z"/>
		</g>
	</g>
</g>
<g>
	<g class="st0">
		<g class="st1">
			<g>
				<path class="st3" d="M125.2-0.8H6.4c-0.4,0-0.7,0-1.1,0c-0.3,0-0.6,0-0.9,0C3.7-0.7,3-0.7,2.3-0.6C1.6-0.4,1-0.2,0.4,0.1
					c-0.6,0.3-1.2,0.7-1.7,1.2c-0.5,0.5-0.9,1-1.2,1.7C-2.8,3.6-3,4.2-3.1,4.9C-3.3,5.6-3.3,6.3-3.3,7c0,0.3,0,0.6,0,0.9
					c0,0.4,0,0.7,0,1.1v22c0,0.4,0,0.7,0,1.1c0,0.3,0,0.6,0,0.9c0,0.7,0.1,1.4,0.2,2.1c0.1,0.7,0.3,1.3,0.6,2
					c0.3,0.6,0.7,1.2,1.2,1.7c0.5,0.5,1,0.9,1.7,1.2c0.6,0.3,1.3,0.5,1.9,0.6c0.7,0.1,1.4,0.2,2.1,0.2c0.3,0,0.6,0,0.9,0
					c0.4,0,0.7,0,1.1,0h118.8c0.4,0,0.7,0,1.1,0c0.3,0,0.6,0,0.9,0c0.7,0,1.4-0.1,2-0.2c0.7-0.1,1.3-0.3,2-0.6
					c0.6-0.3,1.2-0.7,1.7-1.2c0.5-0.5,0.9-1,1.2-1.7c0.3-0.6,0.5-1.3,0.6-2c0.1-0.7,0.2-1.4,0.2-2.1c0-0.3,0-0.6,0-0.9
					c0-0.4,0-0.7,0-1.1V9c0-0.4,0-0.7,0-1.1c0-0.3,0-0.6,0-0.9c0-0.7-0.1-1.4-0.2-2.1c-0.1-0.7-0.3-1.3-0.6-1.9
					c-0.3-0.6-0.7-1.2-1.2-1.7c-0.5-0.5-1-0.9-1.7-1.2c-0.6-0.3-1.3-0.5-2-0.6c-0.7-0.1-1.4-0.2-2-0.2c-0.3,0-0.6,0-0.9,0
					C126-0.8,125.6-0.8,125.2-0.8L125.2-0.8z"/>
				<path d="M5.3,39.9c-0.3,0-0.6,0-0.9,0c-0.6,0-1.3,0-1.9-0.2c-0.6-0.1-1.2-0.3-1.7-0.6c-0.5-0.3-1-0.6-1.4-1
					c-0.4-0.4-0.8-0.9-1-1.4c-0.3-0.5-0.4-1.1-0.6-1.7c-0.1-0.7-0.2-1.4-0.2-1.9c0-0.2,0-0.9,0-0.9V7.9c0,0,0-0.7,0-0.9
					c0-0.5,0-1.2,0.2-1.9C-2.2,4.4-2,3.9-1.7,3.4c0.3-0.5,0.6-1,1-1.4c0.4-0.4,0.9-0.8,1.4-1c0.5-0.3,1.1-0.4,1.7-0.6
					c0.7-0.1,1.4-0.2,1.9-0.2l0.9,0h121l0.9,0c0.5,0,1.2,0,1.9,0.2c0.6,0.1,1.2,0.3,1.7,0.6c0.5,0.3,1,0.6,1.4,1
					c0.4,0.4,0.8,0.9,1,1.4c0.3,0.5,0.4,1.1,0.5,1.7c0.1,0.6,0.2,1.3,0.2,1.9c0,0.3,0,0.6,0,0.9c0,0.4,0,0.7,0,1.1v22
					c0,0.4,0,0.7,0,1.1c0,0.3,0,0.6,0,1c0,0.6-0.1,1.3-0.2,1.9c-0.1,0.6-0.3,1.2-0.6,1.7c-0.3,0.5-0.6,1-1,1.4
					c-0.4,0.4-0.9,0.8-1.4,1c-0.5,0.3-1.1,0.4-1.7,0.6c-0.7,0.1-1.3,0.2-1.9,0.2c-0.3,0-0.6,0-0.9,0l-1.1,0L5.3,39.9z"/>
			</g>
		</g>
	</g>
	<g>
		<g>
			<path class="st4" d="M48,27.3h-4.8L42,30.5h-2.1l4.7-12h2l4.8,12h-2.2L48,27.3z M43.8,25.7h3.6l-1.3-3.4c-0.2-0.5-0.3-1-0.5-1.6
				c-0.2,0.5-0.3,1-0.5,1.6L43.8,25.7z"/>
			<path class="st4" d="M52.3,23.8c0-0.7,0-1.4-0.1-2.2h1.9c0.1,0.4,0.1,0.7,0.1,1.1c0.8-0.9,1.7-1.3,2.7-1.3c0.6,0,1.1,0.2,1.7,0.5
				c0.5,0.3,0.9,0.8,1.2,1.4c0.3,0.6,0.5,1.5,0.5,2.5c0,1-0.2,1.9-0.5,2.7c-0.4,0.7-0.9,1.3-1.5,1.7c-0.6,0.4-1.4,0.6-2.2,0.6
				c-0.6,0-1.2-0.1-1.8-0.3v3.7l-2,0.2V23.8z M57.7,28.3c0.4-0.6,0.6-1.4,0.6-2.5c0-1-0.2-1.7-0.5-2.2C57.5,23.3,57,23,56.4,23
				c-0.4,0-0.8,0.1-1.1,0.3c-0.3,0.2-0.7,0.4-1,0.8v4.8c0.2,0.1,0.4,0.2,0.7,0.2s0.5,0.1,0.8,0.1C56.7,29.2,57.3,28.9,57.7,28.3z"/>
			<path class="st4" d="M61.7,23.8c0-0.7,0-1.4-0.1-2.2h1.9c0.1,0.4,0.1,0.7,0.1,1.1c0.8-0.9,1.7-1.3,2.7-1.3c0.6,0,1.1,0.2,1.7,0.5
				c0.5,0.3,0.9,0.8,1.2,1.4c0.3,0.6,0.5,1.5,0.5,2.5c0,1-0.2,1.9-0.5,2.7c-0.4,0.7-0.9,1.3-1.5,1.7c-0.6,0.4-1.4,0.6-2.2,0.6
				c-0.6,0-1.2-0.1-1.8-0.3v3.7l-2,0.2V23.8z M67.1,28.3c0.4-0.6,0.6-1.4,0.6-2.5c0-1-0.2-1.7-0.5-2.2c-0.3-0.4-0.8-0.7-1.4-0.7
				c-0.4,0-0.8,0.1-1.1,0.3c-0.3,0.2-0.7,0.4-1,0.8v4.8c0.2,0.1,0.4,0.2,0.7,0.2s0.5,0.1,0.8,0.1C66.1,29.2,66.7,28.9,67.1,28.3z"/>
			<path class="st4" d="M73.7,29.9c-0.9-0.5-1.6-1.2-2-2.1c-0.5-0.9-0.7-2-0.7-3.2c0-1.3,0.3-2.5,0.8-3.4c0.5-0.9,1.3-1.6,2.2-2.1
				c0.9-0.5,2-0.7,3.2-0.7c0.7,0,1.3,0.1,2,0.2s1.2,0.4,1.8,0.6l-0.5,1.6c-1.1-0.5-2.1-0.8-3.1-0.8c-0.8,0-1.6,0.2-2.2,0.5
				c-0.6,0.4-1.1,0.9-1.5,1.6c-0.3,0.7-0.5,1.5-0.5,2.5c0,0.9,0.1,1.6,0.4,2.3c0.3,0.7,0.7,1.2,1.3,1.6c0.6,0.4,1.3,0.6,2.2,0.6
				c0.4,0,0.8,0,1.2-0.1c0.4-0.1,0.8-0.2,1.1-0.3v-2.4h-2.8v-1.6h4.8v5c-0.7,0.3-1.4,0.6-2.2,0.7c-0.8,0.2-1.5,0.3-2.2,0.3
				C75.6,30.7,74.6,30.4,73.7,29.9z"/>
			<path class="st4" d="M88.6,30.5c-0.1-0.3-0.1-0.7-0.1-1.2c-0.3,0.4-0.7,0.7-1.2,1c-0.5,0.3-1.1,0.4-1.7,0.4c-0.5,0-1-0.1-1.4-0.3
				c-0.4-0.2-0.8-0.5-1-0.9c-0.2-0.4-0.4-0.9-0.4-1.5c0-0.9,0.3-1.6,0.9-2.1s1.7-0.8,3.1-0.8c0.5,0,1.1,0,1.6,0.1v-0.2
				c0-0.8-0.2-1.3-0.5-1.7c-0.3-0.3-0.8-0.5-1.4-0.5c-0.4,0-0.9,0.1-1.4,0.2c-0.5,0.1-0.9,0.3-1.3,0.5l-0.3-1.5
				c0.4-0.2,0.8-0.3,1.4-0.5c0.6-0.1,1.2-0.2,1.9-0.2c0.8,0,1.4,0.1,2,0.4c0.5,0.2,1,0.6,1.3,1.2c0.3,0.6,0.5,1.3,0.5,2.3v3.6
				c0,0.4,0,0.9,0.1,1.7H88.6z M87.4,28.9c0.4-0.2,0.8-0.5,1-0.8v-1.7c-0.6-0.1-1-0.1-1.4-0.1c-0.8,0-1.4,0.1-1.8,0.4
				c-0.3,0.3-0.5,0.6-0.5,1.1c0,0.4,0.1,0.8,0.4,1c0.2,0.2,0.6,0.3,1,0.3C86.5,29.2,86.9,29.1,87.4,28.9z"/>
			<path class="st4" d="M92.2,28.4V17.8l2-0.2V28c0,0.4,0.1,0.6,0.2,0.8c0.1,0.2,0.3,0.2,0.6,0.2c0.1,0,0.3,0,0.5-0.1l0.2,1.5
				c-0.2,0.1-0.4,0.1-0.7,0.2c-0.3,0-0.5,0.1-0.8,0.1C92.9,30.7,92.2,29.9,92.2,28.4z"/>
			<path class="st4" d="M97.3,28.4V17.8l2-0.2V28c0,0.4,0.1,0.6,0.2,0.8c0.1,0.2,0.3,0.2,0.6,0.2c0.1,0,0.3,0,0.5-0.1l0.2,1.5
				c-0.2,0.1-0.4,0.1-0.7,0.2c-0.3,0-0.5,0.1-0.8,0.1C98,30.7,97.3,29.9,97.3,28.4z"/>
			<path class="st4" d="M109.4,26.3h-5.8c0.1,1.9,1,2.8,2.7,2.8c0.4,0,0.8-0.1,1.3-0.2c0.4-0.1,0.9-0.2,1.3-0.4l0.4,1.4
				c-1,0.5-2.1,0.7-3.4,0.7c-0.9,0-1.7-0.2-2.4-0.5c-0.7-0.4-1.1-0.9-1.5-1.5c-0.3-0.7-0.5-1.5-0.5-2.4c0-1,0.2-1.8,0.5-2.5
				c0.3-0.7,0.8-1.3,1.5-1.6c0.6-0.4,1.3-0.6,2.1-0.6c0.8,0,1.5,0.2,2.1,0.6c0.6,0.4,1,0.9,1.3,1.6c0.3,0.7,0.4,1.4,0.4,2.2V26.3z
				 M107.4,25c0-0.7-0.2-1.2-0.5-1.6c-0.3-0.4-0.7-0.5-1.3-0.5c-0.5,0-1,0.2-1.3,0.5c-0.3,0.4-0.6,0.9-0.7,1.6H107.4z"/>
			<path class="st4" d="M111.1,23.8c0-0.5,0-1.2-0.1-2.2h1.9c0,0.2,0.1,0.5,0.1,0.9c0,0.3,0.1,0.6,0.1,0.8c0.2-0.4,0.5-0.7,0.7-1
				s0.5-0.5,0.8-0.7c0.3-0.2,0.7-0.3,1-0.3c0.3,0,0.6,0,0.8,0.1l-0.3,1.8c-0.2-0.1-0.4-0.1-0.7-0.1c-0.5,0-0.9,0.1-1.3,0.4
				s-0.7,0.6-1.1,1.2v5.7h-2V23.8z"/>
			<path class="st4" d="M117.7,34.2c-0.3-0.1-0.5-0.1-0.7-0.2l0.4-1.5c0.1,0,0.3,0.1,0.5,0.1c0.2,0,0.4,0.1,0.6,0.1
				c0.9,0,1.6-0.6,2-1.7l0.1-0.3l-3.3-9h2.2l1.7,5c0.3,0.9,0.4,1.5,0.5,2c0.2-0.6,0.3-1.3,0.5-1.9l1.7-5.1h2.1l-3.3,9
				c-0.3,0.9-0.6,1.5-1,2.1c-0.4,0.5-0.8,0.9-1.3,1.2c-0.5,0.3-1.1,0.4-1.8,0.4C118.3,34.2,117.9,34.2,117.7,34.2z"/>
		</g>
		<g>
			<path class="st4" d="M39.9,6.8h3.7l-0.1,0.9h-2.5v1.7h2.4v0.8h-2.4v1.9h2.6l-0.1,0.9h-3.6V6.8z"/>
			<path class="st4" d="M46.1,9.9l-1.9-3.1h1.2l1.3,2.3l1.4-2.3h1.2l-1.9,3l2.1,3.2h-1.2l-1.5-2.5l-1.5,2.5H44L46.1,9.9z"/>
			<path class="st4" d="M50.2,6.8h1.7c0.8,0,1.4,0.2,1.8,0.5c0.4,0.3,0.6,0.8,0.6,1.4c0,0.4-0.1,0.8-0.3,1.1
				c-0.2,0.3-0.5,0.5-0.8,0.7c-0.3,0.2-0.7,0.2-1.2,0.2c-0.2,0-0.5,0-0.8-0.1v2.4h-1.1V6.8z M52.9,9.6c0.2-0.2,0.3-0.5,0.3-0.9
				c0-0.4-0.1-0.7-0.4-0.8c-0.2-0.2-0.6-0.3-1-0.3h-0.6v2.2c0.3,0,0.5,0.1,0.6,0.1C52.4,10,52.7,9.9,52.9,9.6z"/>
			<path class="st4" d="M55.4,6.8h1.1v5.3h2.6L59,13.1h-3.6V6.8z"/>
			<path class="st4" d="M60.7,12.8c-0.5-0.3-0.8-0.6-1-1.1c-0.2-0.5-0.4-1-0.4-1.7c0-0.7,0.1-1.2,0.4-1.7c0.3-0.5,0.6-0.9,1.1-1.1
				c0.5-0.3,1.1-0.4,1.7-0.4c0.6,0,1.2,0.1,1.6,0.4c0.5,0.3,0.8,0.6,1,1.1c0.2,0.5,0.4,1,0.4,1.6c0,0.7-0.1,1.3-0.4,1.8
				c-0.3,0.5-0.6,0.9-1.1,1.1c-0.5,0.3-1,0.4-1.7,0.4C61.8,13.2,61.2,13.1,60.7,12.8z M63.6,12c0.3-0.2,0.5-0.5,0.7-0.8
				c0.1-0.4,0.2-0.8,0.2-1.2c0-0.4-0.1-0.9-0.2-1.2c-0.1-0.4-0.3-0.6-0.6-0.8c-0.3-0.2-0.7-0.3-1.1-0.3c-0.4,0-0.8,0.1-1.1,0.3
				c-0.3,0.2-0.5,0.5-0.7,0.9c-0.2,0.4-0.2,0.7-0.2,1.2c0,0.5,0.1,0.9,0.2,1.2c0.1,0.4,0.4,0.6,0.7,0.8c0.3,0.2,0.7,0.3,1.1,0.3
				C62.9,12.3,63.2,12.2,63.6,12z"/>
			<path class="st4" d="M66.8,6.8h2c0.7,0,1.3,0.1,1.6,0.4c0.4,0.3,0.6,0.7,0.6,1.2c0,0.3-0.1,0.6-0.2,0.9c-0.1,0.3-0.3,0.5-0.5,0.6
				c-0.2,0.2-0.4,0.3-0.6,0.4l1.9,2.8h-1.3l-1.6-2.5h-0.8v2.5h-1.1V6.8z M68.5,9.8c0.3,0,0.5-0.1,0.7-0.2c0.2-0.1,0.4-0.2,0.5-0.4
				c0.1-0.2,0.2-0.4,0.2-0.6c0-0.3-0.1-0.5-0.3-0.7c-0.2-0.1-0.5-0.2-0.9-0.2h-0.8v2.1H68.5z"/>
			<path class="st4" d="M72.4,6.8h3.7L76,7.7h-2.5v1.7h2.4v0.8h-2.4v1.9h2.6L76,13.1h-3.6V6.8z"/>
			<path class="st4" d="M80.1,6.8h1.1v6.3h-1.1V6.8z"/>
			<path class="st4" d="M84,7.8h-1.9l0.1-0.9h4.9L87,7.8h-1.8v5.4H84V7.8z"/>
			<path class="st4" d="M91.8,12.8c-0.5-0.3-0.8-0.6-1-1.1c-0.2-0.5-0.4-1-0.4-1.7c0-0.7,0.1-1.2,0.4-1.7c0.3-0.5,0.6-0.9,1.1-1.1
				c0.5-0.3,1.1-0.4,1.7-0.4c0.6,0,1.2,0.1,1.6,0.4c0.5,0.3,0.8,0.6,1,1.1c0.2,0.5,0.4,1,0.4,1.6c0,0.7-0.1,1.3-0.4,1.8
				c-0.3,0.5-0.6,0.9-1.1,1.1c-0.5,0.3-1,0.4-1.7,0.4C92.8,13.2,92.2,13.1,91.8,12.8z M94.6,12c0.3-0.2,0.5-0.5,0.7-0.8
				c0.1-0.4,0.2-0.8,0.2-1.2c0-0.4-0.1-0.9-0.2-1.2c-0.1-0.4-0.3-0.6-0.6-0.8c-0.3-0.2-0.7-0.3-1.1-0.3c-0.4,0-0.8,0.1-1.1,0.3
				c-0.3,0.2-0.5,0.5-0.7,0.9c-0.2,0.4-0.2,0.7-0.2,1.2c0,0.5,0.1,0.9,0.2,1.2c0.1,0.4,0.4,0.6,0.7,0.8c0.3,0.2,0.7,0.3,1.1,0.3
				C93.9,12.3,94.3,12.2,94.6,12z"/>
			<path class="st4" d="M97.8,6.8H99l3.1,4.8c0-0.5,0-0.9,0-1.3V6.8h1v6.3h-1.2l-3.1-4.9c0,0.6,0,1.1,0,1.5v3.4h-1V6.8z"/>
		</g>
		<g>
			<g id="形状_1_拷贝_25_32_">
				<g>
					<path class="st5" d="M24.7,6.8H13.1c-5.4,0-7.4,2-7.4,7.4v11.5c0,5.4,2,7.4,7.4,7.4h11.5c5.4,0,7.4-2,7.4-7.4l0-11.5
						C32.1,8.8,30.1,6.8,24.7,6.8z"/>
				</g>
			</g>
			<path class="st4" d="M10.9,20h0.7v3.5h-0.7v-1.4H9.4v1.4H8.7V20h0.7v1.4h1.6V20z M14.9,22c0,0.6-0.3,0.9-0.8,0.9
				c-0.5,0-0.8-0.3-0.8-0.9V20h-0.7v2c0,1,0.5,1.5,1.5,1.5c0.9,0,1.5-0.6,1.5-1.6V20h-0.7V22z M23,22.4L22.2,20h-0.6l-0.8,2.4
				L20.1,20h-0.7l1.2,3.5h0.6l0.8-2.3l0.8,2.3h0.6l1.2-3.5h-0.7L23,22.4z M25.7,22H27v-0.6h-1.3v-0.7h1.8V20H25v3.4h2.6v-0.6h-1.9
				V22z M28.5,23.4h0.7V20h-0.7V23.4z M17,22.7l-0.3,0.7h-0.7l1.5-3.4h0.6l1.5,3.4h-0.7l-0.3-0.7H17z M17.2,22.1h1.1l-0.5-1.2
				L17.2,22.1z"/>
			<path class="st4" d="M18.9,15.6c-2.4,0-4.4-2-4.4-4.4h0.6c0,2.1,1.7,3.8,3.8,3.8c2.1,0,3.8-1.7,3.8-3.8h0.6
				C23.3,13.6,21.3,15.6,18.9,15.6z"/>
		</g>
	</g>
</g>
</svg>
