<?xml version="1.0" encoding="utf-8"?>
<!-- Generator: Adobe Illustrator 27.8.1, SVG Export Plug-In . SVG Version: 6.00 Build 0)  -->
<svg version="1.1" id="Layer_1" xmlns="http://www.w3.org/2000/svg" xmlns:xlink="http://www.w3.org/1999/xlink" x="0px" y="0px"
	 viewBox="0 0 146 35" style="enable-background:new 0 0 146 35;" xml:space="preserve">
<style type="text/css">
	.st0{fill-rule:evenodd;clip-rule:evenodd;}
</style>
<path class="st0" d="M106.4,26.1h5.6V10.5c0-2.7,2.2-4.9,4.9-4.9h1c0.7,0,1.4,0.2,2.1,0.5l2.4-5.1c-1.4-0.7-2.9-1-4.5-1h-1
	c-5.8,0-10.5,4.7-10.5,10.5V26.1z"/>
<path d="M13.5,0h-3C4.7,0,0,4.7,0,10.5V35h5.6v-9c1.3,0.6,2.8,1,4.3,1h3.1c6,0,10.9-4.9,10.9-10.9v-5.6C24,4.7,19.3,0,13.5,0z
	 M18.3,16.1c0,2.9-2.4,5.3-5.3,5.3H10c-2.4,0-4.3-1.9-4.3-4.3v-6.5c0-2.7,2.2-4.9,4.9-4.9h3c2.7,0,4.9,2.2,4.9,4.9V16.1z"/>
<path d="M5.6,35L5.6,35L5.6,35L5.6,35z"/>
<path class="st0" d="M40.9,0h-4.7c-4.4,0-8.1,2.9-8.9,6.7L32.8,8c0.1-1.3,1.6-2.4,3.3-2.4h4.7c1.8,0,3.4,1.2,3.4,2.5
	c0,0.8-0.2,1.3-0.4,1.6c-1,1-4.1,0.9-6.4,0.9c-0.1,0-0.2,0-0.3,0c-0.4,0-0.7,0-1.1,0c-3.5,0-5.7,1.3-6.9,2.5
	c-1.6,1.5-2.5,3.6-2.5,5.8s0.8,4.1,2.3,5.6C30,25.7,32,27,35.2,27h5.6c5,0,9-3.7,9-8.2V8.2C49.9,3.7,45.8,0,40.9,0z M44.2,18.8
	c0,1.4-1.5,2.5-3.4,2.5h-5.6c-2.3,0-3.1-1.3-3.1-2.4c0-0.6,0.3-1.2,0.7-1.7c0.7-0.6,1.7-1,3.1-1c0.4,0,0.9,0,1.3,0h0
	c2.3,0,4.8,0.1,6.9-0.6V18.8z"/>
<path d="M66.7,0h-3c-5.8,0-10.5,4.7-10.5,10.5V35h5.6v-9c1.3,0.6,2.8,1,4.3,1h3.1c6,0,10.9-4.9,10.9-10.9v-5.6
	C77.2,4.7,72.5,0,66.7,0z M71.6,16.1c0,2.9-2.4,5.3-5.3,5.3h-3.1c-2.4,0-4.3-1.9-4.3-4.3v-6.5c0-2.7,2.2-4.9,4.9-4.9h3
	c2.7,0,4.9,2.2,4.9,4.9V16.1z"/>
<path d="M58.8,35L58.8,35L58.8,35L58.8,35z"/>
<path class="st0" d="M94.1,0h-4.7c-4.4,0-8.1,2.9-8.9,6.7L86.1,8c0.1-1.3,1.6-2.4,3.3-2.4h4.7c1.8,0,3.4,1.2,3.4,2.5
	c0,0.8-0.2,1.3-0.4,1.6c-1,1-4.1,0.9-6.4,0.9c-0.1,0-0.2,0-0.3,0c-0.4,0-0.7,0-1.1,0c-3.5,0-5.7,1.3-6.9,2.5
	c-1.6,1.5-2.5,3.6-2.5,5.8c0,2.2,0.8,4.1,2.3,5.6c1.1,1.1,3.2,2.4,6.4,2.4h5.6c5,0,9-3.7,9-8.2V8.2C103.1,3.7,99,0,94.1,0z
	 M97.4,18.8c0,1.4-1.5,2.5-3.4,2.5h-5.6c-2.3,0-3.1-1.3-3.1-2.4c0-0.6,0.3-1.2,0.7-1.7c0.7-0.6,1.7-1,3.1-1c0.4,0,0.9,0,1.3,0h0
	c2.3,0,4.8,0.1,6.9-0.6V18.8z"/>
<path class="st0" d="M137,0h-4.7c-4.4,0-8.1,2.9-8.9,6.7L129,8c0.1-1.3,1.6-2.4,3.3-2.4h4.7c1.8,0,3.4,1.2,3.4,2.5
	c0,0.8-0.2,1.3-0.4,1.6c-1,1-4.1,0.9-6.4,0.9c-0.1,0-0.2,0-0.3,0c-0.4,0-0.7,0-1.1,0c-3.5,0-5.7,1.3-6.9,2.5
	c-1.6,1.5-2.5,3.6-2.5,5.8c0,2.2,0.8,4.1,2.3,5.6c1.1,1.1,3.2,2.4,6.4,2.4h5.6c5,0,9-3.7,9-8.2V8.2C146,3.7,142,0,137,0z
	 M140.4,18.8c0,1.4-1.5,2.5-3.4,2.5h-5.6c-2.3,0-3.1-1.3-3.1-2.4c0-0.6,0.3-1.2,0.7-1.7c0.7-0.6,1.7-1,3.1-1c0.4,0,0.9,0,1.3,0h0
	c2.3,0,4.8,0.1,6.9-0.6V18.8z"/>
</svg>
